<svg version="1.1" id="Layer_1" xmlns="http://www.w3.org/2000/svg" xmlns:xlink="http://www.w3.org/1999/xlink" x="0px" y="0px"
	 width="100%" viewBox="0 0 800 1200" enable-background="new 0 0 800 1200" xml:space="preserve">
<path fill="#000000" opacity="1.000000" stroke="none" 
	d="
M434.000000,1201.000000 
	C289.333344,1201.000000 145.166672,1201.000000 1.000000,1201.000000 
	C1.000000,801.000000 1.000000,401.000000 1.000000,1.000000 
	C267.666656,1.000000 534.333313,1.000000 801.000000,1.000000 
	C801.000000,401.000000 801.000000,801.000000 801.000000,1201.000000 
	C678.833313,1201.000000 556.666687,1201.000000 434.000000,1201.000000 
M542.418884,444.481415 
	C542.418884,444.481415 542.454895,444.515961 542.135071,443.806610 
	C543.568359,442.850189 545.506653,442.204224 546.326477,440.870667 
	C547.875916,438.350311 549.950012,435.292572 549.637085,432.722137 
	C549.304871,429.992676 546.967896,426.094299 544.612732,425.274933 
	C535.658203,422.159729 527.103943,424.332428 519.602356,429.972260 
	C514.008362,434.177979 508.993500,439.222839 503.130554,442.970612 
	C500.501312,444.651276 496.087006,445.159576 493.103607,444.222717 
	C489.950531,443.232574 490.798584,439.546356 491.670349,436.473907 
	C492.328400,434.154724 492.016388,431.533691 491.975281,429.049622 
	C491.926758,426.115021 490.555267,424.960327 487.390503,424.879456 
	C483.328064,424.775696 480.104095,425.812042 476.970520,428.434265 
	C465.668091,437.892242 463.910889,449.944183 472.539337,460.573883 
	C463.895325,463.144196 458.482269,458.444214 454.513184,451.871521 
	C451.088531,446.200287 449.386871,440.224579 454.985657,434.298096 
	C457.204315,431.949554 458.722687,428.634979 459.722992,425.493713 
	C463.646179,413.173492 467.630249,400.846405 470.785400,388.318817 
	C472.402435,381.898376 472.687622,375.058533 472.861328,368.389679 
	C472.967041,364.331116 471.256500,359.852478 467.017487,358.830048 
	C464.221893,358.155731 459.617493,359.073181 457.890564,361.067932 
	C453.921661,365.652344 450.274567,370.985077 448.199188,376.638947 
	C444.185944,387.572296 440.746887,398.803070 438.215332,410.165771 
	C436.243530,419.016083 435.859894,428.240173 435.064575,437.323883 
	C434.688141,441.623688 435.134888,445.990601 434.914673,450.312103 
	C434.851318,451.555298 434.004425,453.577393 433.109741,453.836426 
	C420.010254,457.629364 407.910919,451.283173 407.064484,436.532654 
	C406.905579,433.763824 406.494171,431.394470 403.433624,431.077911 
	C400.194214,430.742859 398.990082,432.904510 397.861816,435.824127 
	C396.207367,440.105347 393.905975,444.220062 391.339417,448.042603 
	C388.565308,452.174255 384.276794,454.530609 379.380981,452.648102 
	C374.301270,450.694824 370.238464,447.257050 369.956360,441.010254 
	C369.877594,439.264771 369.684753,437.305450 368.830292,435.868896 
	C367.739807,434.035583 366.153137,431.874023 364.337280,431.328308 
	C363.239868,430.998505 360.886047,433.180695 359.829010,434.732910 
	C357.640045,437.947296 355.939911,441.494537 353.846405,445.250000 
	C352.024231,444.971893 349.708466,445.135864 347.922577,444.241608 
	C343.790436,442.172577 345.133759,438.713348 346.177216,435.316986 
	C347.280304,431.726410 348.761169,427.271820 344.329559,425.423279 
	C341.695068,424.324402 337.397125,424.750641 334.897980,426.246735 
	C327.041321,430.949982 322.131958,438.221527 322.201416,447.563049 
	C322.234955,452.075317 324.401428,456.571716 325.799133,461.814270 
	C322.839294,460.870941 319.525879,459.941925 316.305328,458.759949 
	C310.904663,456.777832 309.693390,451.320374 307.074554,447.097687 
	C304.733398,443.322723 306.327911,439.829315 308.233429,436.219330 
	C311.405426,430.209839 314.486237,424.100647 316.931610,417.773071 
	C319.573639,410.936707 321.524170,403.826019 323.630096,396.791199 
	C326.939697,385.735779 328.047974,374.488281 325.974457,363.058502 
	C325.384949,359.808960 320.310669,356.498047 317.882263,358.211456 
	C313.930542,360.999664 309.437622,364.046539 307.245361,368.103943 
	C301.428894,378.868744 296.904572,390.144287 294.552277,402.453247 
	C291.859680,416.542816 288.741974,430.469757 288.980133,444.906891 
	C289.001312,446.189087 289.195007,447.802826 288.540619,448.706451 
	C284.850311,453.802521 274.737793,455.115417 269.147095,451.718811 
	C257.914734,444.894684 255.691132,433.138855 254.280975,421.942505 
	C252.181519,405.273346 254.833466,388.646423 259.322418,372.460510 
	C260.256012,369.094177 260.508362,366.727417 256.851044,365.397949 
	C253.419174,364.150330 251.202637,365.778381 250.045761,368.850494 
	C247.189865,376.434357 245.080215,384.360168 241.588242,391.628510 
	C237.027573,401.121185 231.359207,410.077332 226.285126,419.328857 
	C220.088989,430.626129 212.023117,439.991760 200.427200,446.142273 
	C195.012207,449.014404 184.530640,449.044342 180.131821,444.952454 
	C172.425385,437.783691 169.218369,428.036835 170.330566,418.237854 
	C172.076828,402.852509 178.165726,388.530121 187.582642,376.132294 
	C193.801819,367.944427 200.832077,360.260590 208.260818,353.146332 
	C212.589523,349.000885 218.091904,345.648529 223.641800,343.298767 
	C236.077133,338.033661 247.149994,343.002869 253.606293,356.283722 
	C255.765610,355.919495 258.267578,355.886078 260.466187,355.052521 
	C266.647034,352.709198 270.695160,345.735260 269.008698,338.879700 
	C267.411957,332.388947 263.377930,328.361420 254.477081,328.002808 
	C237.809555,327.331299 223.034698,333.207489 209.574249,342.192078 
	C201.444168,347.618774 193.660431,353.913452 186.895050,360.947327 
	C178.403778,369.775635 170.436005,379.295715 163.525452,389.395203 
	C158.200378,397.177612 154.694626,406.239777 150.667496,414.867126 
	C144.760605,427.521423 142.229614,440.797302 143.978195,454.789246 
	C144.889114,462.078217 146.796631,468.938141 152.395172,474.063049 
	C161.277649,482.193970 171.959717,482.825531 182.378036,478.832001 
	C190.026016,475.900391 197.819733,471.745941 203.709396,466.187714 
	C213.779343,456.684448 223.421707,446.462555 229.292725,433.443024 
	C230.703491,430.314545 233.053162,427.609528 235.754990,423.524414 
	C235.898483,426.035004 236.052383,426.863129 235.975723,427.669312 
	C235.003113,437.899078 232.918594,448.165253 233.291779,458.342407 
	C233.695999,469.366516 236.425980,478.389496 248.183044,480.488342 
	C259.585693,482.523926 270.283173,479.930450 279.039581,471.657013 
	C282.981018,467.933075 286.906830,464.192688 290.692963,460.598999 
	C291.105469,461.727234 291.700745,462.895966 291.959747,464.135010 
	C294.449005,476.043823 300.863190,481.322083 312.172791,480.289703 
	C323.442078,479.260956 330.350403,473.850952 335.246399,464.443665 
	C335.934967,463.120636 337.092468,461.597321 338.386017,461.116150 
	C342.390564,459.626648 346.565643,458.595612 351.000000,457.290802 
	C351.000000,458.681488 351.058624,460.144867 350.989746,461.602173 
	C350.707642,467.568237 353.006073,472.763672 358.102875,475.306519 
	C363.510010,478.004303 369.916962,478.831848 375.354736,474.983948 
	C381.479218,470.650055 387.147797,465.671844 392.583893,461.318848 
	C393.813568,464.762970 394.435150,469.741913 397.062042,473.195557 
	C402.749207,480.672546 411.481659,480.741058 420.268188,475.945801 
	C426.024902,472.804047 430.957794,468.152740 436.248840,464.185638 
	C437.114563,465.685638 438.308685,467.199982 438.929718,468.921112 
	C442.818207,479.696991 455.401245,484.343445 465.935364,479.084961 
	C473.222290,475.447388 478.316498,469.872864 481.983521,462.786987 
	C482.257324,462.257843 482.327148,461.281189 482.676453,461.185333 
	C486.652802,460.094086 490.665131,459.133850 495.000122,458.055939 
	C495.000122,462.226929 494.931702,466.211823 495.020203,470.193176 
	C495.100952,473.825165 500.741425,479.668915 504.299072,480.004272 
	C510.385529,480.578033 515.928894,479.773041 520.531006,475.074707 
	C523.603821,471.937653 527.189453,469.302856 531.128418,465.946594 
	C531.451050,468.449951 531.925720,470.576477 531.964172,472.710846 
	C532.104980,480.525238 538.083618,485.054779 545.473206,481.894958 
	C552.002319,479.103088 557.961670,474.978912 563.781555,471.665588 
	C564.076172,473.324585 564.587158,476.202484 565.139404,479.312225 
	C569.340027,478.155670 572.183899,477.084564 572.100281,472.412811 
	C572.003662,467.013184 572.569885,461.591248 573.054321,456.197479 
	C573.217163,454.384003 574.010803,452.627197 574.516235,450.844482 
	C575.010803,450.945953 575.505432,451.047424 576.000000,451.148895 
	C576.000000,455.078308 576.013672,459.007782 575.997131,462.937134 
	C575.963196,471.009521 580.870605,476.555176 587.297791,479.259979 
	C591.990417,481.234802 598.359924,481.697906 603.358582,478.038330 
	C608.318054,474.407471 613.045227,470.458496 617.855591,466.625580 
	C618.985107,465.725586 620.039124,464.731018 622.022034,462.999023 
	C621.229858,465.613312 620.612427,466.793884 620.554138,468.001434 
	C620.365112,471.916382 619.103821,476.443787 620.605286,479.626953 
	C623.117554,484.953156 638.723145,483.041260 642.088989,477.684753 
	C644.887573,473.231049 642.076294,469.505920 641.079224,465.523438 
	C639.953308,461.026154 638.549561,456.585754 637.706726,452.039062 
	C637.492920,450.885590 638.949402,449.422485 639.638367,448.101654 
	C640.568787,448.703125 641.649353,449.157623 642.405457,449.929779 
	C647.561340,455.195160 651.276001,455.652466 657.453857,451.103210 
	C660.850464,448.601959 664.068604,445.765381 666.944824,442.685486 
	C668.643982,440.865997 669.518494,438.276398 670.281372,436.902252 
	C666.641357,434.442474 663.797607,432.949585 661.493347,430.861359 
	C658.189331,427.867004 654.589172,426.680695 650.861938,429.118347 
	C646.197021,432.169250 641.954224,435.865601 637.110046,439.607056 
	C636.804260,438.039276 636.293396,435.987915 636.019165,433.905426 
	C635.267639,428.197235 631.540283,425.640320 626.096008,427.403473 
	C618.398376,429.896240 614.313293,436.377563 610.258789,442.617584 
	C608.397461,445.482269 610.369202,447.887360 614.047852,447.988861 
	C616.237854,448.049286 618.430847,447.999939 621.557922,447.999939 
	C619.464355,449.927094 618.224182,451.080933 616.970947,452.220428 
	C606.482361,461.756653 590.209839,458.178925 585.608765,444.856964 
	C584.277954,441.003632 584.700500,436.846436 578.627258,437.646149 
	C584.760376,429.523895 585.950500,429.309906 593.694824,433.876587 
	C594.547058,434.379150 596.367004,434.467743 597.006897,433.909760 
	C602.284302,429.308044 605.549377,423.558563 604.911743,416.379913 
	C604.442871,411.101807 601.122864,407.939331 596.575134,409.225067 
	C592.447388,410.392090 588.626648,413.154449 585.116272,415.804077 
	C583.019165,417.386993 581.779907,420.106384 580.155029,422.314941 
	C579.810181,422.082062 579.465332,421.849213 579.120483,421.616364 
	C580.074219,419.715271 581.345459,417.906219 581.927734,415.897461 
	C584.732483,406.222168 587.465027,396.522644 590.005981,386.775085 
	C592.781616,376.127106 594.108948,365.334778 591.974243,354.377350 
	C591.071960,349.746277 583.490479,346.047241 579.180115,347.958923 
	C572.833252,350.773773 571.574768,356.431213 569.488220,362.443726 
	C566.089233,372.237732 566.057739,382.263885 565.171875,392.204498 
	C564.361511,401.297699 565.000000,410.519989 565.000000,419.685394 
	C565.000000,430.683868 565.032959,441.682526 564.984558,452.680786 
	C564.963745,457.407166 561.644348,461.304291 556.166260,462.898987 
	C552.591736,463.939514 550.418762,461.553864 547.983582,459.385223 
	C544.595764,456.368256 544.979248,452.612427 544.990723,448.796967 
	C545.000549,445.527283 544.965149,445.527191 542.418884,444.481415 
M407.380768,761.092102 
	C411.185272,751.354309 414.989746,741.616516 419.116241,731.054504 
	C420.515869,741.164734 421.255341,750.245483 423.143616,759.080750 
	C424.981415,767.679626 432.278564,773.631958 439.649658,769.809204 
	C442.974335,768.084961 448.752594,767.604004 447.895569,761.335144 
	C435.096222,760.091003 433.601044,759.311707 430.168335,746.361816 
	C428.232727,739.059692 427.951324,731.312256 427.020050,723.753662 
	C426.538177,719.842957 426.264130,715.906738 425.896210,711.982056 
	C425.213348,711.805969 424.530518,711.629822 423.847687,711.453674 
	C414.326477,723.074036 412.731934,738.478394 406.254333,751.322510 
	C405.850281,746.854248 405.449707,742.146423 404.992615,737.444092 
	C404.488190,732.254822 404.258423,727.005554 403.243073,721.915222 
	C402.815613,719.772278 400.681549,717.969666 399.323303,716.012390 
	C397.888641,718.027222 395.878510,719.848938 395.125824,722.092529 
	C392.740173,729.203369 390.895325,736.493835 388.672302,743.662415 
	C388.168549,745.286987 386.981934,746.699768 386.109650,748.210022 
	C385.738098,748.070496 385.366547,747.931030 384.994995,747.791504 
	C384.994995,735.903931 384.994995,724.016296 384.994995,712.182190 
	C380.291870,711.482300 378.899170,713.601257 378.968140,717.547852 
	C379.084473,724.207336 379.000000,730.870300 379.000000,737.531799 
	C379.000000,748.322632 379.000000,759.113464 379.000000,771.657104 
	C381.748047,769.766418 384.317749,768.980286 384.842468,767.479248 
	C388.477264,757.080994 391.655884,746.523926 395.112396,736.061279 
	C395.309143,735.465576 396.662140,735.251892 397.558411,734.821289 
	C398.847473,746.573975 400.070343,757.723389 401.317413,769.093201 
	C405.737427,768.375061 407.357697,765.866394 407.380768,761.092102 
M188.000015,725.491821 
	C187.997086,722.159119 188.179489,718.810486 187.893768,715.502197 
	C187.789505,714.294983 186.625519,712.281006 185.850266,712.235107 
	C184.604187,712.161316 182.569000,713.103699 182.102295,714.161621 
	C178.888351,721.447083 175.980515,728.868164 173.004623,736.257812 
	C171.404755,740.230591 169.865204,744.227661 167.790909,749.504944 
	C166.020294,738.280518 164.571793,728.700317 162.921036,719.155029 
	C162.722778,718.008667 161.329498,716.135254 160.661560,716.206543 
	C159.435257,716.337280 157.701736,717.429443 157.290344,718.534424 
	C155.008591,724.662964 153.070251,730.918884 150.996353,737.125305 
	C149.437820,741.789368 147.852249,746.444336 146.278702,751.103333 
	C145.892059,751.018188 145.505402,750.932983 145.118759,750.847839 
	C145.118759,737.958435 145.118759,725.068970 145.118759,712.087952 
	C140.680954,711.862854 140.094406,714.755493 140.081696,717.538269 
	C140.066849,720.784729 140.912079,724.030823 140.954117,727.282654 
	C141.081146,737.112366 141.084091,746.945801 140.954147,756.775452 
	C140.908981,760.192810 140.118301,763.603210 140.117432,767.016846 
	C140.117142,768.222656 141.455048,769.428833 142.182007,770.634888 
	C143.189560,769.870789 144.355377,769.242432 145.160049,768.304321 
	C145.961990,767.369446 146.639847,766.188110 146.959366,765.003479 
	C148.418640,759.593201 149.465317,754.057617 151.181824,748.735229 
	C152.611954,744.300964 154.766922,740.100342 157.053589,734.733643 
	C158.004669,737.219055 158.825150,738.488892 158.946442,739.822388 
	C159.716980,748.294312 160.273605,756.785767 161.064285,765.255554 
	C161.183060,766.527893 162.158493,767.720215 162.737640,768.949524 
	C164.079315,768.169800 166.169235,767.697205 166.636581,766.558655 
	C168.990265,760.824829 170.899353,754.909546 173.005219,749.072693 
	C175.389908,742.463074 177.817841,735.869019 180.226944,729.268250 
	C180.817963,729.343506 181.408981,729.418762 182.000000,729.494080 
	C182.000000,735.045410 182.115738,740.599854 181.967636,746.147217 
	C181.818008,751.750977 182.316376,757.067627 184.898148,762.271606 
	C188.105148,768.735718 194.856308,773.976562 203.153748,768.347839 
	C205.753143,766.584534 209.346786,765.577332 208.777863,761.000000 
	C206.661835,761.000000 204.649612,760.797852 202.692978,761.041687 
	C198.511581,761.562866 196.650543,759.095947 194.936569,755.855225 
	C190.062424,746.639526 187.896912,736.834778 188.000015,725.491821 
M275.895264,768.998840 
	C284.204712,769.914917 289.538666,764.261658 295.494232,759.607971 
	C296.293182,760.971924 297.017944,761.871399 297.387878,762.898560 
	C299.100220,767.653381 302.557159,770.326965 307.417755,770.951904 
	C313.218140,771.697693 317.766479,769.286865 320.929749,764.453064 
	C321.510254,763.565979 321.321167,762.175293 321.487305,761.017029 
	C320.531830,760.941833 319.535980,760.653137 318.627136,760.824768 
	C310.561676,762.348450 301.221588,752.403870 303.290222,744.352112 
	C304.761322,738.626160 306.666229,732.999512 307.887482,727.224915 
	C309.145203,721.277832 310.860107,715.040405 305.248444,709.772827 
	C301.490601,711.821289 298.855042,714.425293 297.933960,718.746094 
	C296.835480,723.899048 294.937927,728.905640 294.138062,734.091614 
	C293.316772,739.416199 293.445068,744.883667 293.060913,750.281738 
	C292.964569,751.635620 292.932343,753.387329 292.118195,754.222839 
	C289.721039,756.682617 286.351044,759.690247 283.261139,757.724792 
	C280.147339,755.744080 276.974792,751.945923 276.262360,748.448181 
	C273.859161,736.649719 275.404236,724.970703 279.968842,713.739929 
	C280.350098,712.801880 279.969971,711.554382 279.943604,710.450623 
	C278.660217,710.768738 276.650024,710.685181 276.215179,711.472229 
	C273.924591,715.617188 271.367889,719.803284 270.154358,724.311768 
	C268.276001,731.289978 267.549408,738.569519 266.076538,745.667786 
	C264.348785,753.994263 268.178345,764.273010 275.895264,768.998840 
M600.046753,718.014832 
	C601.315125,718.070618 602.583435,718.126404 603.294983,718.157715 
	C602.509094,726.891846 601.448425,735.264221 601.084351,743.666748 
	C600.705688,752.404480 601.000000,761.171387 601.000000,769.851990 
	C605.471252,770.347534 607.169556,768.973145 607.082520,764.733032 
	C606.843384,753.077942 607.000000,741.414612 607.000000,729.754578 
	C607.000000,727.204224 607.000000,724.653931 607.000000,720.657837 
	C609.804871,724.261108 612.145508,726.358887 613.349487,728.978943 
	C617.573181,738.170227 622.953247,747.032349 621.168640,758.012268 
	C620.688293,760.967468 622.046509,764.314514 622.974548,767.355408 
	C623.300903,768.424744 625.018799,769.937317 625.827820,769.785828 
	C627.005615,769.565491 628.741028,768.094421 628.835754,767.031616 
	C629.310791,761.701172 629.377625,756.331055 629.486816,750.972839 
	C629.539795,748.373535 628.649536,745.523804 629.436584,743.213379 
	C631.949402,735.837036 635.002808,728.641968 637.938904,721.414001 
	C639.417053,717.774963 641.092529,714.216125 642.678772,710.621033 
	C642.041809,710.304626 641.404785,709.988159 640.767822,709.671753 
	C630.577637,714.677368 631.252869,726.309021 626.955200,733.407471 
	C623.650024,727.339478 620.365723,720.259705 616.089294,713.841003 
	C613.393311,709.794495 608.740906,709.023804 603.830627,710.588135 
	C598.080444,712.420044 594.058594,715.813110 591.853577,721.193542 
	C592.293884,721.733032 592.734131,722.272522 593.174377,722.812012 
	C595.198669,721.283081 597.222961,719.754150 600.046753,718.014832 
M521.000000,736.508179 
	C520.667847,732.429932 520.454285,728.337769 519.978577,724.276367 
	C519.030945,716.186096 519.622864,714.998779 526.182312,711.250793 
	C527.113342,710.718750 528.085815,708.911377 527.860840,707.978271 
	C527.357910,705.891174 526.111877,703.983215 525.093567,701.844971 
	C519.110168,704.739624 513.636841,707.230042 508.319885,710.018738 
	C505.140289,711.686401 504.335754,717.402588 506.547546,721.050537 
	C509.230957,719.762512 511.932617,718.465698 516.000122,716.513306 
	C516.000122,728.324768 515.521606,739.217957 516.185486,750.041077 
	C516.563782,756.207886 518.696228,761.989929 511.241364,765.766846 
	C510.208771,766.289917 510.761810,771.421692 511.726776,773.989197 
	C512.677185,776.518066 514.775146,776.382019 517.281128,774.476013 
	C521.070251,771.594238 525.367615,769.309448 529.647461,767.167542 
	C532.875427,765.552063 532.025146,763.943420 530.967834,761.310059 
	C529.184326,756.867859 525.410461,758.343262 522.126404,757.876038 
	C521.741760,750.914978 521.370850,744.202820 521.000000,736.508179 
z"/>
<path fill="#FFFFFF" opacity="1.000000" stroke="none" 
	d="
M542.425781,444.461182 
	C544.965149,445.527191 545.000549,445.527283 544.990723,448.796967 
	C544.979248,452.612427 544.595764,456.368256 547.983582,459.385223 
	C550.418762,461.553864 552.591736,463.939514 556.166260,462.898987 
	C561.644348,461.304291 564.963745,457.407166 564.984558,452.680786 
	C565.032959,441.682526 565.000000,430.683868 565.000000,419.685394 
	C565.000000,410.519989 564.361511,401.297699 565.171875,392.204498 
	C566.057739,382.263885 566.089233,372.237732 569.488220,362.443726 
	C571.574768,356.431213 572.833252,350.773773 579.180115,347.958923 
	C583.490479,346.047241 591.071960,349.746277 591.974243,354.377350 
	C594.108948,365.334778 592.781616,376.127106 590.005981,386.775085 
	C587.465027,396.522644 584.732483,406.222168 581.927734,415.897461 
	C581.345459,417.906219 580.074219,419.715271 579.120483,421.616364 
	C579.465332,421.849213 579.810181,422.082062 580.155029,422.314941 
	C581.779907,420.106384 583.019165,417.386993 585.116272,415.804077 
	C588.626648,413.154449 592.447388,410.392090 596.575134,409.225067 
	C601.122864,407.939331 604.442871,411.101807 604.911743,416.379913 
	C605.549377,423.558563 602.284302,429.308044 597.006897,433.909760 
	C596.367004,434.467743 594.547058,434.379150 593.694824,433.876587 
	C585.950500,429.309906 584.760376,429.523895 578.627258,437.646149 
	C584.700500,436.846436 584.277954,441.003632 585.608765,444.856964 
	C590.209839,458.178925 606.482361,461.756653 616.970947,452.220428 
	C618.224182,451.080933 619.464355,449.927094 621.557922,447.999939 
	C618.430847,447.999939 616.237854,448.049286 614.047852,447.988861 
	C610.369202,447.887360 608.397461,445.482269 610.258789,442.617584 
	C614.313293,436.377563 618.398376,429.896240 626.096008,427.403473 
	C631.540283,425.640320 635.267639,428.197235 636.019165,433.905426 
	C636.293396,435.987915 636.804260,438.039276 637.110046,439.607056 
	C641.954224,435.865601 646.197021,432.169250 650.861938,429.118347 
	C654.589172,426.680695 658.189331,427.867004 661.493347,430.861359 
	C663.797607,432.949585 666.641357,434.442474 670.281372,436.902252 
	C669.518494,438.276398 668.643982,440.865997 666.944824,442.685486 
	C664.068604,445.765381 660.850464,448.601959 657.453857,451.103210 
	C651.276001,455.652466 647.561340,455.195160 642.405457,449.929779 
	C641.649353,449.157623 640.568787,448.703125 639.638428,448.101685 
	C638.949402,449.422485 637.492920,450.885590 637.706726,452.039062 
	C638.549561,456.585754 639.953308,461.026154 641.079224,465.523438 
	C642.076294,469.505920 644.887573,473.231049 642.088989,477.684753 
	C638.723145,483.041260 623.117554,484.953156 620.605286,479.626953 
	C619.103821,476.443787 620.365112,471.916382 620.554138,468.001434 
	C620.612427,466.793884 621.229858,465.613312 622.022034,462.999023 
	C620.039124,464.731018 618.985107,465.725586 617.855591,466.625580 
	C613.045227,470.458496 608.318054,474.407471 603.358582,478.038330 
	C598.359924,481.697906 591.990417,481.234802 587.297791,479.259979 
	C580.870605,476.555176 575.963196,471.009521 575.997131,462.937134 
	C576.013672,459.007782 576.000000,455.078308 576.000000,451.148895 
	C575.505432,451.047424 575.010803,450.945953 574.516235,450.844482 
	C574.010803,452.627197 573.217163,454.384003 573.054321,456.197479 
	C572.569885,461.591248 572.003662,467.013184 572.100281,472.412811 
	C572.183899,477.084564 569.340027,478.155670 565.139404,479.312225 
	C564.587158,476.202484 564.076172,473.324585 563.781555,471.665588 
	C557.961670,474.978912 552.002319,479.103088 545.473206,481.894958 
	C538.083618,485.054779 532.104980,480.525238 531.964172,472.710846 
	C531.925720,470.576477 531.451050,468.449951 531.128418,465.946594 
	C527.189453,469.302856 523.603821,471.937653 520.531006,475.074707 
	C515.928894,479.773041 510.385529,480.578033 504.299072,480.004272 
	C500.741425,479.668915 495.100952,473.825165 495.020203,470.193176 
	C494.931702,466.211823 495.000122,462.226929 495.000122,458.055939 
	C490.665131,459.133850 486.652802,460.094086 482.676453,461.185333 
	C482.327148,461.281189 482.257324,462.257843 481.983521,462.786987 
	C478.316498,469.872864 473.222290,475.447388 465.935364,479.084961 
	C455.401245,484.343445 442.818207,479.696991 438.929718,468.921112 
	C438.308685,467.199982 437.114563,465.685638 436.248840,464.185638 
	C430.957794,468.152740 426.024902,472.804047 420.268188,475.945801 
	C411.481659,480.741058 402.749207,480.672546 397.062042,473.195557 
	C394.435150,469.741913 393.813568,464.762970 392.583893,461.318848 
	C387.147797,465.671844 381.479218,470.650055 375.354736,474.983948 
	C369.916962,478.831848 363.510010,478.004303 358.102875,475.306519 
	C353.006073,472.763672 350.707642,467.568237 350.989746,461.602173 
	C351.058624,460.144867 351.000000,458.681488 351.000000,457.290802 
	C346.565643,458.595612 342.390564,459.626648 338.386017,461.116150 
	C337.092468,461.597321 335.934967,463.120636 335.246399,464.443665 
	C330.350403,473.850952 323.442078,479.260956 312.172791,480.289703 
	C300.863190,481.322083 294.449005,476.043823 291.959747,464.135010 
	C291.700745,462.895966 291.105469,461.727234 290.692963,460.598999 
	C286.906830,464.192688 282.981018,467.933075 279.039581,471.657013 
	C270.283173,479.930450 259.585693,482.523926 248.183044,480.488342 
	C236.425980,478.389496 233.695999,469.366516 233.291779,458.342407 
	C232.918594,448.165253 235.003113,437.899078 235.975723,427.669312 
	C236.052383,426.863129 235.898483,426.035004 235.754990,423.524414 
	C233.053162,427.609528 230.703491,430.314545 229.292725,433.443024 
	C223.421707,446.462555 213.779343,456.684448 203.709396,466.187714 
	C197.819733,471.745941 190.026016,475.900391 182.378036,478.832001 
	C171.959717,482.825531 161.277649,482.193970 152.395172,474.063049 
	C146.796631,468.938141 144.889114,462.078217 143.978195,454.789246 
	C142.229614,440.797302 144.760605,427.521423 150.667496,414.867126 
	C154.694626,406.239777 158.200378,397.177612 163.525452,389.395203 
	C170.436005,379.295715 178.403778,369.775635 186.895050,360.947327 
	C193.660431,353.913452 201.444168,347.618774 209.574249,342.192078 
	C223.034698,333.207489 237.809555,327.331299 254.477081,328.002808 
	C263.377930,328.361420 267.411957,332.388947 269.008698,338.879700 
	C270.695160,345.735260 266.647034,352.709198 260.466187,355.052521 
	C258.267578,355.886078 255.765610,355.919495 253.606293,356.283722 
	C247.149994,343.002869 236.077133,338.033661 223.641800,343.298767 
	C218.091904,345.648529 212.589523,349.000885 208.260818,353.146332 
	C200.832077,360.260590 193.801819,367.944427 187.582642,376.132294 
	C178.165726,388.530121 172.076828,402.852509 170.330566,418.237854 
	C169.218369,428.036835 172.425385,437.783691 180.131821,444.952454 
	C184.530640,449.044342 195.012207,449.014404 200.427200,446.142273 
	C212.023117,439.991760 220.088989,430.626129 226.285126,419.328857 
	C231.359207,410.077332 237.027573,401.121185 241.588242,391.628510 
	C245.080215,384.360168 247.189865,376.434357 250.045761,368.850494 
	C251.202637,365.778381 253.419174,364.150330 256.851044,365.397949 
	C260.508362,366.727417 260.256012,369.094177 259.322418,372.460510 
	C254.833466,388.646423 252.181519,405.273346 254.280975,421.942505 
	C255.691132,433.138855 257.914734,444.894684 269.147095,451.718811 
	C274.737793,455.115417 284.850311,453.802521 288.540619,448.706451 
	C289.195007,447.802826 289.001312,446.189087 288.980133,444.906891 
	C288.741974,430.469757 291.859680,416.542816 294.552277,402.453247 
	C296.904572,390.144287 301.428894,378.868744 307.245361,368.103943 
	C309.437622,364.046539 313.930542,360.999664 317.882263,358.211456 
	C320.310669,356.498047 325.384949,359.808960 325.974457,363.058502 
	C328.047974,374.488281 326.939697,385.735779 323.630096,396.791199 
	C321.524170,403.826019 319.573639,410.936707 316.931610,417.773071 
	C314.486237,424.100647 311.405426,430.209839 308.233429,436.219330 
	C306.327911,439.829315 304.733398,443.322723 307.074554,447.097687 
	C309.693390,451.320374 310.904663,456.777832 316.305328,458.759949 
	C319.525879,459.941925 322.839294,460.870941 325.799133,461.814270 
	C324.401428,456.571716 322.234955,452.075317 322.201416,447.563049 
	C322.131958,438.221527 327.041321,430.949982 334.897980,426.246735 
	C337.397125,424.750641 341.695068,424.324402 344.329559,425.423279 
	C348.761169,427.271820 347.280304,431.726410 346.177216,435.316986 
	C345.133759,438.713348 343.790436,442.172577 347.922577,444.241608 
	C349.708466,445.135864 352.024231,444.971893 353.846405,445.250000 
	C355.939911,441.494537 357.640045,437.947296 359.829010,434.732910 
	C360.886047,433.180695 363.239868,430.998505 364.337280,431.328308 
	C366.153137,431.874023 367.739807,434.035583 368.830292,435.868896 
	C369.684753,437.305450 369.877594,439.264771 369.956360,441.010254 
	C370.238464,447.257050 374.301270,450.694824 379.380981,452.648102 
	C384.276794,454.530609 388.565308,452.174255 391.339417,448.042603 
	C393.905975,444.220062 396.207367,440.105347 397.861816,435.824127 
	C398.990082,432.904510 400.194214,430.742859 403.433624,431.077911 
	C406.494171,431.394470 406.905579,433.763824 407.064484,436.532654 
	C407.910919,451.283173 420.010254,457.629364 433.109741,453.836426 
	C434.004425,453.577393 434.851318,451.555298 434.914673,450.312103 
	C435.134888,445.990601 434.688141,441.623688 435.064575,437.323883 
	C435.859894,428.240173 436.243530,419.016083 438.215332,410.165771 
	C440.746887,398.803070 444.185944,387.572296 448.199188,376.638947 
	C450.274567,370.985077 453.921661,365.652344 457.890564,361.067932 
	C459.617493,359.073181 464.221893,358.155731 467.017487,358.830048 
	C471.256500,359.852478 472.967041,364.331116 472.861328,368.389679 
	C472.687622,375.058533 472.402435,381.898376 470.785400,388.318817 
	C467.630249,400.846405 463.646179,413.173492 459.722992,425.493713 
	C458.722687,428.634979 457.204315,431.949554 454.985657,434.298096 
	C449.386871,440.224579 451.088531,446.200287 454.513184,451.871521 
	C458.482269,458.444214 463.895325,463.144196 472.537231,460.578308 
	C463.910889,449.944183 465.668091,437.892242 476.970520,428.434265 
	C480.104095,425.812042 483.328064,424.775696 487.390503,424.879456 
	C490.555267,424.960327 491.926758,426.115021 491.975281,429.049622 
	C492.016388,431.533691 492.328400,434.154724 491.670349,436.473907 
	C490.798584,439.546356 489.950531,443.232574 493.103607,444.222717 
	C496.087006,445.159576 500.501312,444.651276 503.130554,442.970612 
	C508.993500,439.222839 514.008362,434.177979 519.602356,429.972260 
	C527.103943,424.332428 535.658203,422.159729 544.612732,425.274933 
	C546.967896,426.094299 549.304871,429.992676 549.637085,432.722137 
	C549.950012,435.292572 547.875916,438.350311 546.326477,440.870667 
	C545.506653,442.204224 543.568359,442.850189 541.938599,443.925842 
	C538.183105,441.551483 534.714050,438.914673 531.037109,436.609222 
	C528.039307,434.729492 525.250061,434.330536 521.623840,436.523224 
	C517.253784,439.165710 516.800171,443.351044 516.258118,447.126434 
	C515.730774,450.799744 516.772583,454.986267 520.929260,456.977600 
	C524.554565,458.714355 528.235962,458.791962 531.354187,456.008514 
	C533.303284,454.268616 534.804504,452.027130 536.507812,450.011688 
	C538.265259,447.932190 538.988403,444.749573 542.425781,444.461182 
M303.999817,399.375732 
	C301.591583,409.891418 301.534271,420.408508 304.227051,431.132599 
	C306.525024,427.301331 308.759613,423.424866 309.898163,419.249573 
	C312.508575,409.676697 315.088104,400.039398 316.666992,390.264618 
	C317.471008,385.286896 318.720093,379.488495 313.910278,374.323029 
	C305.780029,380.684631 305.627289,389.896301 303.999817,399.375732 
M449.032806,397.803802 
	C449.032806,409.381866 449.032806,420.959900 449.032806,432.853485 
	C450.698029,429.793732 452.963135,426.946625 453.869385,423.718079 
	C456.509277,414.313721 459.064148,404.836792 460.740906,395.229248 
	C461.724670,389.592407 461.045258,383.650879 460.925354,377.850311 
	C460.905823,376.905090 459.941467,375.234406 459.351379,375.206207 
	C458.239014,375.153076 456.805817,375.789551 456.013428,376.622223 
	C455.066071,377.617767 454.436493,379.057098 454.042084,380.412659 
	C452.437134,385.929291 450.974823,391.487396 449.032806,397.803802 
M577.035461,407.670074 
	C583.835205,394.984344 585.140625,371.197388 579.025757,366.186249 
	C570.387268,382.175049 573.567810,399.191803 573.060425,415.826569 
	C573.586121,415.912476 574.111816,415.998352 574.637451,416.084259 
	C575.409790,413.555908 576.182068,411.027557 577.035461,407.670074 
z"/>
<path fill="#FFFFFF" opacity="1.000000" stroke="none" 
	d="
M407.204468,761.460083 
	C407.357697,765.866394 405.737427,768.375061 401.317413,769.093201 
	C400.070343,757.723389 398.847473,746.573975 397.558411,734.821289 
	C396.662140,735.251892 395.309143,735.465576 395.112396,736.061279 
	C391.655884,746.523926 388.477264,757.080994 384.842468,767.479248 
	C384.317749,768.980286 381.748047,769.766418 379.000000,771.657104 
	C379.000000,759.113464 379.000000,748.322632 379.000000,737.531799 
	C379.000000,730.870300 379.084473,724.207336 378.968140,717.547852 
	C378.899170,713.601257 380.291870,711.482300 384.994995,712.182190 
	C384.994995,724.016296 384.994995,735.903931 384.994995,747.791504 
	C385.366547,747.931030 385.738098,748.070496 386.109650,748.210022 
	C386.981934,746.699768 388.168549,745.286987 388.672302,743.662415 
	C390.895325,736.493835 392.740173,729.203369 395.125824,722.092529 
	C395.878510,719.848938 397.888641,718.027222 399.323303,716.012390 
	C400.681549,717.969666 402.815613,719.772278 403.243073,721.915222 
	C404.258423,727.005554 404.488190,732.254822 404.992615,737.444092 
	C405.449707,742.146423 405.850281,746.854248 406.254333,751.322510 
	C412.731934,738.478394 414.326477,723.074036 423.847687,711.453674 
	C424.530518,711.629822 425.213348,711.805969 425.896210,711.982056 
	C426.264130,715.906738 426.538177,719.842957 427.020050,723.753662 
	C427.951324,731.312256 428.232727,739.059692 430.168335,746.361816 
	C433.601044,759.311707 435.096222,760.091003 447.895569,761.335144 
	C448.752594,767.604004 442.974335,768.084961 439.649658,769.809204 
	C432.278564,773.631958 424.981415,767.679626 423.143616,759.080750 
	C421.255341,750.245483 420.515869,741.164734 419.116241,731.054504 
	C414.989746,741.616516 411.185272,751.354309 407.204468,761.460083 
z"/>
<path fill="#FFFFFF" opacity="1.000000" stroke="none" 
	d="
M188.000000,725.980713 
	C187.896912,736.834778 190.062424,746.639526 194.936569,755.855225 
	C196.650543,759.095947 198.511581,761.562866 202.692978,761.041687 
	C204.649612,760.797852 206.661835,761.000000 208.777863,761.000000 
	C209.346786,765.577332 205.753143,766.584534 203.153748,768.347839 
	C194.856308,773.976562 188.105148,768.735718 184.898148,762.271606 
	C182.316376,757.067627 181.818008,751.750977 181.967636,746.147217 
	C182.115738,740.599854 182.000000,735.045410 182.000000,729.494080 
	C181.408981,729.418762 180.817963,729.343506 180.226944,729.268250 
	C177.817841,735.869019 175.389908,742.463074 173.005219,749.072693 
	C170.899353,754.909546 168.990265,760.824829 166.636581,766.558655 
	C166.169235,767.697205 164.079315,768.169800 162.737640,768.949585 
	C162.158493,767.720215 161.183060,766.527893 161.064285,765.255554 
	C160.273605,756.785767 159.716980,748.294312 158.946442,739.822388 
	C158.825150,738.488892 158.004669,737.219055 157.053589,734.733643 
	C154.766922,740.100342 152.611954,744.300964 151.181824,748.735229 
	C149.465317,754.057617 148.418640,759.593201 146.959366,765.003479 
	C146.639847,766.188110 145.961990,767.369446 145.160049,768.304321 
	C144.355377,769.242432 143.189560,769.870789 142.181992,770.634888 
	C141.455048,769.428833 140.117142,768.222656 140.117432,767.016846 
	C140.118301,763.603210 140.908981,760.192810 140.954147,756.775452 
	C141.084091,746.945801 141.081146,737.112366 140.954117,727.282654 
	C140.912079,724.030823 140.066849,720.784729 140.081696,717.538269 
	C140.094406,714.755493 140.680954,711.862854 145.118759,712.087952 
	C145.118759,725.068970 145.118759,737.958435 145.118759,750.847839 
	C145.505402,750.932983 145.892059,751.018188 146.278702,751.103333 
	C147.852249,746.444336 149.437820,741.789368 150.996353,737.125305 
	C153.070251,730.918884 155.008591,724.662964 157.290344,718.534424 
	C157.701736,717.429443 159.435257,716.337280 160.661560,716.206543 
	C161.329498,716.135254 162.722778,718.008667 162.921036,719.155029 
	C164.571793,728.700317 166.020294,738.280518 167.790909,749.504944 
	C169.865204,744.227661 171.404755,740.230591 173.004623,736.257812 
	C175.980515,728.868164 178.888351,721.447083 182.102295,714.161621 
	C182.569000,713.103699 184.604187,712.161316 185.850266,712.235107 
	C186.625519,712.281006 187.789505,714.294983 187.893768,715.502197 
	C188.179489,718.810486 187.997086,722.159119 188.000000,725.980713 
z"/>
<path fill="#FFFFFF" opacity="1.000000" stroke="none" 
	d="
M275.471069,768.991028 
	C268.178345,764.273010 264.348785,753.994263 266.076538,745.667786 
	C267.549408,738.569519 268.276001,731.289978 270.154358,724.311768 
	C271.367889,719.803284 273.924591,715.617188 276.215179,711.472229 
	C276.650024,710.685181 278.660217,710.768738 279.943604,710.450623 
	C279.969971,711.554382 280.350098,712.801880 279.968842,713.739929 
	C275.404236,724.970703 273.859161,736.649719 276.262360,748.448181 
	C276.974792,751.945923 280.147339,755.744080 283.261139,757.724792 
	C286.351044,759.690247 289.721039,756.682617 292.118195,754.222839 
	C292.932343,753.387329 292.964569,751.635620 293.060913,750.281738 
	C293.445068,744.883667 293.316772,739.416199 294.138062,734.091614 
	C294.937927,728.905640 296.835480,723.899048 297.933960,718.746094 
	C298.855042,714.425293 301.490601,711.821289 305.248444,709.772827 
	C310.860107,715.040405 309.145203,721.277832 307.887482,727.224915 
	C306.666229,732.999512 304.761322,738.626160 303.290222,744.352112 
	C301.221588,752.403870 310.561676,762.348450 318.627136,760.824768 
	C319.535980,760.653137 320.531830,760.941833 321.487305,761.017029 
	C321.321167,762.175293 321.510254,763.565979 320.929749,764.453064 
	C317.766479,769.286865 313.218140,771.697693 307.417755,770.951904 
	C302.557159,770.326965 299.100220,767.653381 297.387878,762.898560 
	C297.017944,761.871399 296.293182,760.971924 295.494232,759.607971 
	C289.538666,764.261658 284.204712,769.914917 275.471069,768.991028 
z"/>
<path fill="#FFFFFF" opacity="1.000000" stroke="none" 
	d="
M599.646973,718.119995 
	C597.222961,719.754150 595.198669,721.283081 593.174377,722.812012 
	C592.734131,722.272522 592.293884,721.733032 591.853577,721.193542 
	C594.058594,715.813110 598.080444,712.420044 603.830627,710.588135 
	C608.740906,709.023804 613.393311,709.794495 616.089294,713.841003 
	C620.365723,720.259705 623.650024,727.339478 626.955200,733.407471 
	C631.252869,726.309021 630.577637,714.677368 640.767822,709.671753 
	C641.404785,709.988159 642.041809,710.304626 642.678772,710.621033 
	C641.092529,714.216125 639.417053,717.774963 637.938904,721.414001 
	C635.002808,728.641968 631.949402,735.837036 629.436584,743.213379 
	C628.649536,745.523804 629.539795,748.373535 629.486816,750.972839 
	C629.377625,756.331055 629.310791,761.701172 628.835754,767.031616 
	C628.741028,768.094421 627.005615,769.565491 625.827820,769.785828 
	C625.018799,769.937317 623.300903,768.424744 622.974548,767.355408 
	C622.046509,764.314514 620.688293,760.967468 621.168640,758.012268 
	C622.953247,747.032349 617.573181,738.170227 613.349487,728.978943 
	C612.145508,726.358887 609.804871,724.261108 607.000000,720.657837 
	C607.000000,724.653931 607.000000,727.204224 607.000000,729.754578 
	C607.000000,741.414612 606.843384,753.077942 607.082520,764.733032 
	C607.169556,768.973145 605.471252,770.347534 601.000000,769.851990 
	C601.000000,761.171387 600.705688,752.404480 601.084351,743.666748 
	C601.448425,735.264221 602.509094,726.891846 603.294983,718.157715 
	C602.583435,718.126404 601.315125,718.070618 599.646973,718.119995 
z"/>
<path fill="#FFFFFF" opacity="1.000000" stroke="none" 
	d="
M521.000000,736.999390 
	C521.370850,744.202820 521.741760,750.914978 522.126404,757.876038 
	C525.410461,758.343262 529.184326,756.867859 530.967834,761.310059 
	C532.025146,763.943420 532.875427,765.552063 529.647461,767.167542 
	C525.367615,769.309448 521.070251,771.594238 517.281128,774.476013 
	C514.775146,776.382019 512.677185,776.518066 511.726776,773.989197 
	C510.761810,771.421692 510.208771,766.289917 511.241364,765.766846 
	C518.696228,761.989929 516.563782,756.207886 516.185486,750.041077 
	C515.521606,739.217957 516.000122,728.324768 516.000122,716.513306 
	C511.932617,718.465698 509.230957,719.762512 506.547546,721.050537 
	C504.335754,717.402588 505.140289,711.686401 508.319885,710.018738 
	C513.636841,707.230042 519.110168,704.739624 525.093567,701.844971 
	C526.111877,703.983215 527.357910,705.891174 527.860840,707.978271 
	C528.085815,708.911377 527.113342,710.718750 526.182312,711.250793 
	C519.622864,714.998779 519.030945,716.186096 519.978577,724.276367 
	C520.454285,728.337769 520.667847,732.429932 521.000000,736.999390 
z"/>
<path fill="#000000" opacity="1.000000" stroke="none" 
	d="
M303.999908,398.921509 
	C305.627289,389.896301 305.780029,380.684631 313.910278,374.323029 
	C318.720093,379.488495 317.471008,385.286896 316.666992,390.264618 
	C315.088104,400.039398 312.508575,409.676697 309.898163,419.249573 
	C308.759613,423.424866 306.525024,427.301331 304.227051,431.132599 
	C301.534271,420.408508 301.591583,409.891418 303.999908,398.921509 
z"/>
<path fill="#000000" opacity="1.000000" stroke="none" 
	d="
M449.246368,397.416992 
	C450.974823,391.487396 452.437134,385.929291 454.042084,380.412659 
	C454.436493,379.057098 455.066071,377.617767 456.013428,376.622223 
	C456.805817,375.789551 458.239014,375.153076 459.351379,375.206207 
	C459.941467,375.234406 460.905823,376.905090 460.925354,377.850311 
	C461.045258,383.650879 461.724670,389.592407 460.740906,395.229248 
	C459.064148,404.836792 456.509277,414.313721 453.869385,423.718079 
	C452.963135,426.946625 450.698029,429.793732 449.032806,432.853485 
	C449.032806,420.959900 449.032806,409.381866 449.246368,397.416992 
z"/>
<path fill="#000000" opacity="1.000000" stroke="none" 
	d="
M542.422363,444.471313 
	C538.988403,444.749573 538.265259,447.932190 536.507812,450.011688 
	C534.804504,452.027130 533.303284,454.268616 531.354187,456.008514 
	C528.235962,458.791962 524.554565,458.714355 520.929260,456.977600 
	C516.772583,454.986267 515.730774,450.799744 516.258118,447.126434 
	C516.800171,443.351044 517.253784,439.165710 521.623840,436.523224 
	C525.250061,434.330536 528.039307,434.729492 531.037109,436.609222 
	C534.714050,438.914673 538.183105,441.551483 542.098511,444.280518 
	C542.454895,444.515961 542.418884,444.481415 542.422363,444.471313 
z"/>
<path fill="#000000" opacity="1.000000" stroke="none" 
	d="
M576.994873,408.084656 
	C576.182068,411.027557 575.409790,413.555908 574.637451,416.084259 
	C574.111816,415.998352 573.586121,415.912476 573.060425,415.826569 
	C573.567810,399.191803 570.387268,382.175049 579.025757,366.186249 
	C585.140625,371.197388 583.835205,394.984344 576.994873,408.084656 
z"/>
</svg>