<svg width="430" height="430" viewBox="0 0 430 430" fill="none" xmlns="http://www.w3.org/2000/svg">
<rect width="430" height="430" fill="#1E1E1E"/>
<path d="M325.647 124.839C327.72 125.981 327.749 125.981 327.741 129.485C327.731 133.573 327.418 137.597 330.183 140.83C332.171 143.154 333.945 145.71 336.862 144.595C341.333 142.886 344.042 138.711 344.059 133.646C344.099 121.862 344.072 110.077 344.072 98.2923C344.072 88.4717 343.551 78.5902 344.212 68.8469C344.935 58.1957 344.961 47.4529 347.735 36.9587C349.438 30.5164 350.465 24.4546 355.645 21.4385C359.163 19.3902 365.351 23.3536 366.088 28.3158C367.83 40.0565 366.747 51.6203 364.481 63.0294C362.407 73.4738 360.177 83.8667 357.888 94.2336C357.413 96.3859 356.375 98.3243 355.597 100.361C355.878 100.611 356.16 100.86 356.441 101.11C357.767 98.7434 358.779 95.8296 360.49 94.1335C363.355 91.2945 366.474 88.3347 369.843 87.0842C373.554 85.7066 376.264 89.0951 376.647 94.7505C377.167 102.442 374.502 108.603 370.195 113.533C369.673 114.131 368.187 114.036 367.492 113.498C361.171 108.605 360.2 108.834 355.194 117.537C360.151 116.68 359.806 121.134 360.892 125.263C364.648 139.538 377.929 143.371 386.489 133.153C387.512 131.932 388.524 130.696 390.233 128.631C387.681 128.631 385.891 128.684 384.104 128.619C381.101 128.51 379.492 125.933 381.011 122.864C384.32 116.178 387.654 109.233 393.937 106.562C398.38 104.673 401.423 107.413 402.036 113.529C402.26 115.76 402.677 117.958 402.926 119.638C406.88 115.629 410.343 111.669 414.15 108.4C417.192 105.788 420.131 107.059 422.827 110.267C424.708 112.505 427.029 114.104 430 116.74C429.377 118.212 428.664 120.987 427.277 122.937C424.929 126.237 422.303 129.276 419.53 131.956C414.488 136.83 411.456 136.34 407.248 130.699C406.631 129.871 405.749 129.384 404.99 128.74C404.428 130.155 403.239 131.723 403.413 132.959C404.101 137.83 405.247 142.588 406.166 147.407C406.98 151.674 409.274 155.666 406.99 160.438C404.243 166.177 391.506 168.226 389.456 162.519C388.23 159.108 389.26 154.257 389.414 150.062C389.461 148.768 389.965 147.503 390.612 144.702C388.993 146.558 388.133 147.624 387.211 148.588C383.285 152.695 379.427 156.926 375.379 160.817C371.299 164.738 366.101 164.242 362.271 162.126C357.025 159.227 353.02 153.285 353.047 144.636C353.061 140.426 353.05 136.215 353.05 132.005C352.646 131.896 352.242 131.787 351.839 131.679C351.426 133.589 350.778 135.471 350.646 137.414C350.25 143.194 349.788 149.003 349.867 154.789C349.935 159.795 347.614 160.942 344.186 162.182C343.735 158.849 343.318 155.766 343.077 153.988C338.327 157.538 333.463 161.957 328.135 164.949C322.103 168.335 317.224 163.481 317.109 155.108C317.077 152.821 316.69 150.543 316.427 147.86C313.212 151.457 310.285 154.28 307.777 157.641C304.021 162.675 299.497 163.538 294.529 162.923C291.626 162.564 287.022 156.302 286.956 152.411C286.884 148.145 286.94 143.875 286.94 139.406C283.401 140.561 280.127 141.59 276.881 142.759C276.596 142.862 276.539 143.908 276.316 144.475C273.323 152.067 269.165 158.04 263.218 161.938C254.62 167.572 244.35 162.594 241.176 151.048C240.669 149.203 239.695 147.581 238.988 145.974C234.67 150.224 230.644 155.208 225.945 158.574C218.774 163.712 211.647 163.639 207.005 155.628C204.861 151.927 204.354 146.592 203.35 142.902C198.913 147.566 194.287 152.9 189.288 157.544C184.85 161.667 179.62 160.78 175.207 157.889C171.047 155.165 169.172 149.598 169.402 143.205C169.458 141.644 169.41 140.076 169.41 138.586C165.791 139.984 162.383 141.089 159.115 142.685C158.059 143.2 157.114 144.832 156.552 146.25C152.556 156.33 146.918 162.127 137.72 163.229C128.49 164.335 123.255 158.679 121.223 145.919C121.011 144.592 120.526 143.339 120.189 142.131C117.099 145.981 113.895 149.989 110.678 153.979C103.531 162.844 94.7999 165.623 85.4934 163.442C75.8975 161.193 73.6694 151.525 73.3395 139.713C73.0349 128.808 74.7362 117.808 75.53 106.847C75.5926 105.983 75.467 105.096 75.3499 102.406C73.1447 106.783 71.227 109.681 70.0755 113.033C65.2837 126.984 57.4139 137.936 49.195 148.119C44.388 154.074 38.027 158.526 31.7849 161.667C23.2817 165.946 14.5632 165.269 7.31358 156.557C2.74418 151.066 1.18731 143.716 0.443839 135.906C-0.983312 120.913 1.08242 106.688 5.90349 93.1296C9.19033 83.8855 12.0516 74.1756 16.3978 65.8368C22.0381 55.0154 28.5412 44.8148 35.4716 35.3554C40.9933 27.8187 47.3462 21.074 53.9818 15.2594C64.9679 5.63258 77.0268 -0.663661 90.6304 0.0558501C97.8951 0.440097 101.188 4.75553 102.491 11.7103C103.867 19.0559 100.563 26.5284 95.5186 29.0392C93.7241 29.9323 91.6821 29.9681 89.9197 30.3584C84.6502 16.1282 75.6128 10.8038 65.4634 16.4452C60.9337 18.963 56.4428 22.555 52.9098 26.9967C46.8466 34.6196 41.1087 42.8527 36.0328 51.6258C28.3469 64.9099 23.3773 80.2561 21.952 96.7413C21.0443 107.241 23.6618 117.684 29.9516 125.366C33.5418 129.75 42.0966 129.718 46.5162 126.64C55.9805 120.05 62.5637 110.015 67.6208 97.9103C71.7621 87.9974 76.3885 78.401 80.1108 68.2298C82.9609 60.4419 84.6827 51.9495 87.0137 43.8235C87.9579 40.5318 89.767 38.7873 92.568 40.1242C95.553 41.5487 95.347 44.0846 94.5851 47.6916C90.9213 65.0345 88.7568 82.85 90.4703 100.711C91.6213 112.707 93.4361 125.304 102.604 132.616C107.167 136.255 115.42 134.848 118.432 129.388C118.966 128.42 118.808 126.691 118.791 125.317C118.597 109.848 121.141 94.9251 123.339 79.8283C125.259 66.6395 128.951 54.5579 133.699 43.0236C135.488 38.6761 139.155 35.4115 142.38 32.4239C144.362 30.588 148.504 34.1356 148.985 37.6175C150.677 49.8643 149.773 61.9158 147.071 73.7615C145.353 81.2992 143.761 88.9182 141.604 96.2433C139.608 103.023 137.094 109.569 134.505 116.008C132.95 119.876 131.648 123.619 133.559 127.664C135.697 132.189 136.685 138.036 141.093 140.16C143.722 141.427 146.426 142.422 148.842 143.433C147.701 137.815 145.933 132.998 145.905 128.163C145.849 118.153 149.856 110.362 156.268 105.323C158.308 103.72 161.816 103.263 163.966 104.44C167.583 106.421 166.374 111.194 165.474 115.041C164.622 118.68 163.526 122.387 166.898 124.604C168.356 125.562 170.246 125.386 171.733 125.684C173.442 121.66 174.83 117.86 176.616 114.415C177.479 112.752 179.4 110.414 180.296 110.767C181.778 111.352 183.073 113.668 183.963 115.633C184.66 117.172 184.818 119.271 184.882 121.142C185.112 127.835 188.428 131.518 192.574 133.611C196.57 135.628 200.07 133.104 202.334 128.677C204.429 124.581 206.307 120.172 207.658 115.585C208.578 112.456 209.561 110.14 212.205 110.499C214.703 110.838 215.039 113.377 215.169 116.344C215.859 132.149 225.735 138.949 236.426 134.885C237.156 134.607 237.848 132.44 237.899 131.108C238.079 126.478 237.714 121.799 238.022 117.192C238.671 107.459 238.984 97.5751 240.593 88.0922C242.659 75.9172 245.466 63.8836 248.742 52.1687C250.436 46.1107 253.412 40.3967 256.652 35.4846C258.061 33.3473 261.819 32.3642 264.101 33.0868C267.561 34.1823 268.957 38.9811 268.87 43.3297C268.729 50.4753 268.496 57.8041 267.176 64.6835C264.601 78.1066 261.349 91.3149 258.147 104.516C257.331 107.882 256.092 111.433 254.281 113.95C249.711 120.3 251.1 126.703 253.895 132.779C257.135 139.822 261.553 144.858 268.606 142.108C261.565 130.714 262.999 117.801 272.224 107.667C274.782 104.857 277.413 103.746 280.729 103.858C283.312 103.944 284.431 105.182 284.471 108.326C284.504 110.988 284.759 113.796 284.222 116.281C283.51 119.573 282.818 123.523 285.392 124.584C287.827 125.587 291.43 125.043 293.575 123.242C298.361 119.226 302.454 113.821 307.019 109.315C313.142 103.272 320.124 100.944 327.432 104.281C329.354 105.159 331.262 109.336 331.533 112.261C331.788 115.015 330.096 118.291 328.831 120.992C328.162 122.421 326.58 123.113 325.25 124.266C322.185 121.721 319.353 118.896 316.352 116.426C313.905 114.412 311.629 113.984 308.669 116.334C305.103 119.165 304.732 123.65 304.29 127.695C303.859 131.631 304.71 136.117 308.102 138.25C311.061 140.111 314.066 140.194 316.611 137.212C318.202 135.348 319.427 132.946 320.817 130.786C322.252 128.558 322.842 125.148 325.647 124.839ZM131.05 76.5308C129.084 87.7982 129.037 99.0671 131.235 110.558C133.111 106.453 134.935 102.299 135.864 97.8253C137.994 87.5681 140.1 77.2419 141.388 66.7684C142.045 61.4348 143.064 55.222 139.138 49.6872C132.503 56.5036 132.378 66.3738 131.05 76.5308ZM249.422 74.8465C249.422 87.2522 249.422 99.6579 249.422 112.402C250.781 109.123 252.63 106.073 253.37 102.613C255.524 92.5366 257.61 82.3823 258.978 72.0879C259.781 66.0481 259.226 59.6819 259.129 53.4667C259.113 52.4539 258.326 50.6638 257.844 50.6335C256.936 50.5766 255.766 51.2586 255.12 52.1508C254.346 53.2175 253.833 54.7597 253.511 56.2122C252.201 62.1232 251.007 68.0786 249.422 74.8465ZM353.895 85.4181C359.445 71.8255 360.51 46.3382 355.519 40.9688C348.469 58.1006 351.065 76.3337 350.651 94.1576C351.08 94.2497 351.509 94.3417 351.938 94.4337C352.568 91.7246 353.198 89.0156 353.895 85.4181Z" fill="white"/>
<path d="M39.9261 379.204C39.842 390.834 41.6094 401.339 45.5876 411.214C46.9865 414.686 48.5054 417.329 51.9182 416.771C53.5151 416.51 55.1575 416.726 56.8845 416.726C57.3489 421.631 54.4158 422.71 52.2942 424.599C45.5221 430.631 40.0119 425.015 37.3945 418.089C35.2873 412.513 34.8805 406.816 35.0026 400.812C35.1235 394.868 35.0291 388.916 35.0291 382.968C34.5467 382.888 34.0643 382.807 33.5819 382.726C31.6157 389.799 29.6341 396.864 27.6877 403.946C25.969 410.201 24.4108 416.539 22.4898 422.682C22.1084 423.902 20.4026 424.409 19.3076 425.244C18.8349 423.927 18.0388 422.649 17.9418 421.286C17.2965 412.211 16.8422 403.112 16.2133 394.035C16.1143 392.606 15.4446 391.245 14.6684 388.582C12.8021 394.333 11.0432 398.834 9.876 403.585C8.47502 409.288 7.62075 415.219 6.42973 421.016C6.16894 422.285 5.61569 423.551 4.96117 424.553C4.30441 425.558 3.3529 426.231 2.53055 427.05C1.93723 425.758 0.845265 424.465 0.845502 423.173C0.846211 419.516 1.49155 415.861 1.52841 412.2C1.63447 401.668 1.63206 391.131 1.52838 380.599C1.49407 377.114 0.804217 373.636 0.816335 370.158C0.826709 367.176 1.30544 364.077 4.92747 364.318C4.92747 378.227 4.92747 392.038 4.92747 405.848C5.24304 405.94 5.55862 406.031 5.87418 406.122C7.15848 401.13 8.45258 396.142 9.72462 391.145C11.4173 384.495 12.9993 377.792 14.8616 371.225C15.1974 370.041 16.6123 368.871 17.6131 368.731C18.1583 368.655 19.2954 370.662 19.4573 371.89C20.8046 382.118 21.9868 392.383 23.4319 404.41C25.1249 398.755 26.3815 394.472 27.6872 390.216C30.1161 382.298 32.4894 374.346 35.1126 366.54C35.4935 365.406 37.1545 364.396 38.1716 364.476C38.8043 364.525 39.7543 366.683 39.8394 367.976C40.0726 371.521 39.9237 375.109 39.9261 379.204Z" fill="white"/>
<path d="M217.298 416.814C217.423 421.536 216.1 424.224 212.493 424.993C211.475 412.81 210.477 400.864 209.425 388.271C208.693 388.733 207.589 388.962 207.428 389.6C204.607 400.81 202.013 412.122 199.046 423.264C198.618 424.872 196.521 425.714 194.278 427.74C194.278 414.3 194.278 402.738 194.278 391.175C194.278 384.038 194.347 376.899 194.252 369.763C194.196 365.534 195.332 363.264 199.171 364.014C199.171 376.694 199.171 389.431 199.171 402.169C199.474 402.318 199.777 402.468 200.081 402.617C200.793 400.999 201.761 399.485 202.172 397.744C203.987 390.063 205.492 382.252 207.439 374.633C208.054 372.229 209.694 370.277 210.865 368.118C211.974 370.215 213.716 372.146 214.065 374.443C214.893 379.897 215.081 385.521 215.492 391.082C215.866 396.12 216.192 401.164 216.522 405.952C221.809 392.19 223.111 375.684 230.882 363.233C231.439 363.422 231.996 363.611 232.554 363.799C232.854 368.005 233.077 372.222 233.471 376.412C234.231 384.511 234.461 392.813 236.04 400.637C238.842 414.512 240.062 415.347 250.509 416.68C251.208 423.397 246.492 423.913 243.779 425.76C237.763 429.856 231.807 423.478 230.307 414.265C228.766 404.798 228.162 395.068 227.02 384.235C223.652 395.552 220.547 405.986 217.298 416.814Z" fill="white"/>
<path d="M105.128 427.756C99.176 422.701 96.0504 411.687 97.4605 402.766C98.6626 395.16 99.2557 387.36 100.789 379.883C101.779 375.052 103.866 370.567 105.735 366.126C106.09 365.282 107.731 365.372 108.778 365.031C108.8 366.214 109.11 367.55 108.799 368.555C105.074 380.589 103.812 393.103 105.774 405.745C106.355 409.492 108.945 413.562 111.486 415.684C114.008 417.79 116.759 414.568 118.715 411.932C119.38 411.037 119.406 409.16 119.485 407.709C119.798 401.925 119.693 396.067 120.364 390.362C121.016 384.805 122.565 379.441 123.462 373.919C124.214 369.29 126.365 366.5 129.432 364.305C134.012 369.949 132.612 376.632 131.586 383.004C130.589 389.192 129.034 395.221 127.833 401.356C126.145 409.983 133.768 420.639 140.351 419.006C141.093 418.822 141.906 419.131 142.685 419.212C142.55 420.453 142.704 421.943 142.23 422.894C139.649 428.073 135.936 430.656 131.202 429.857C127.235 429.187 124.414 426.323 123.016 421.228C122.714 420.127 122.123 419.164 121.471 417.702C116.61 422.689 112.256 428.746 105.128 427.756Z" fill="white"/>
<path d="M370.375 372.285C368.397 374.036 366.745 375.675 365.093 377.313C364.733 376.735 364.374 376.157 364.015 375.579C365.814 369.814 369.097 366.178 373.79 364.215C377.798 362.539 381.595 363.365 383.795 367.7C387.286 374.578 389.966 382.164 392.664 388.666C396.171 381.06 395.62 368.597 403.937 363.233C404.457 363.572 404.977 363.911 405.497 364.25C404.202 368.102 402.835 371.916 401.628 375.815C399.232 383.559 396.74 391.269 394.689 399.173C394.047 401.648 394.773 404.702 394.73 407.487C394.641 413.228 394.586 418.982 394.199 424.693C394.121 425.832 392.705 427.408 391.744 427.644C391.083 427.807 389.681 426.186 389.415 425.04C388.657 421.782 387.549 418.196 387.941 415.029C389.397 403.264 385.006 393.769 381.559 383.921C380.576 381.113 378.666 378.865 376.377 375.005C376.377 379.286 376.377 382.019 376.377 384.752C376.377 397.245 376.249 409.742 376.444 422.23C376.515 426.774 375.129 428.246 371.48 427.715C371.48 418.414 371.24 409.021 371.549 399.658C371.846 390.655 372.711 381.684 373.353 372.326C372.772 372.292 371.737 372.232 370.375 372.285Z" fill="white"/>
<path d="M314.801 385.9C315.104 393.618 315.407 400.81 315.721 408.269C318.401 408.769 321.481 407.189 322.937 411.948C323.8 414.77 324.494 416.494 321.859 418.225C318.366 420.52 314.859 422.968 311.766 426.055C309.721 428.098 308.008 428.243 307.233 425.534C306.445 422.783 305.994 417.284 306.836 416.724C312.921 412.677 311.18 406.481 310.872 399.874C310.33 388.277 310.72 376.605 310.72 363.949C307.401 366.041 305.196 367.431 303.005 368.811C301.2 364.902 301.857 358.777 304.452 356.99C308.792 354.002 313.259 351.334 318.142 348.232C318.973 350.523 319.99 352.568 320.401 354.804C320.584 355.804 319.791 357.741 319.031 358.311C313.677 362.326 313.194 363.599 313.968 372.267C314.356 376.619 314.53 381.004 314.801 385.9Z" fill="white"/>
<path d="M131.241 76.7167C132.569 67.0463 132.694 57.1761 139.33 50.3598C143.255 55.8945 142.236 62.1074 141.58 67.4409C140.291 77.9145 138.186 88.2407 136.055 98.4979C135.126 102.972 133.302 107.125 131.426 111.23C129.229 99.7396 129.275 88.4707 131.241 76.7167Z" fill="black"/>
<path d="M249.924 74.1616C251.335 67.8081 252.528 61.8527 253.838 55.9417C254.16 54.4893 254.674 52.947 255.447 51.8803C256.094 50.9881 257.264 50.3062 258.172 50.3631C258.653 50.3933 259.44 52.1834 259.456 53.1962C259.554 59.4114 260.109 65.7777 259.306 71.8175C257.937 82.1118 255.852 92.2662 253.697 102.343C252.958 105.802 251.109 108.853 249.75 112.131C249.75 99.3875 249.75 86.9818 249.924 74.1616Z" fill="black"/>
<path d="M325.891 124.761C323.089 125.059 322.499 128.469 321.064 130.698C319.674 132.857 318.449 135.259 316.858 137.123C314.313 140.105 311.308 140.022 308.349 138.161C304.957 136.028 304.106 131.542 304.537 127.606C304.979 123.561 305.349 119.076 308.916 116.245C311.876 113.895 314.152 114.323 316.599 116.337C319.6 118.807 322.432 121.633 325.627 124.557C325.918 124.809 325.889 124.772 325.891 124.761Z" fill="black"/>
<path d="M354.305 85.6099C353.642 88.7632 353.011 91.4722 352.381 94.1813C351.952 94.0893 351.523 93.9973 351.094 93.9052C351.508 76.0813 348.912 57.8481 355.963 40.7164C360.954 46.0858 359.888 71.5731 354.305 85.6099Z" fill="black"/>
</svg>
